# xmcd
#
# Track frame offsets:
#        150
#        19329
#        40152
#        65062
#        84499
#        105327
#
# Disc length: 1731 seconds
#
# Revision: 0
# Processed by: cddbd v1.5.1PL0 Copyright (c) Steve Scherf et al.
# Submitted via: ExactAudioCopy v0.95a5
#
DISCID=4506c106
DTITLE=Nostalgic-Scopes - Far away
DYEAR=2004
DGENRE=JPop
TTITLE0=Far away
TTITLE1=A warm heart
TTITLE2=Charm point
TTITLE3=Far away(Instrumental)
TTITLE4=A warm heart(Instrumental)
TTITLE5=Charm point(Instrumental)
EXTD=
EXTT0=
EXTT1=
EXTT2=
EXTT3=
EXTT4=
EXTT5=
PLAYORDER=
